<?xml version="1.0" encoding="UTF-8"?><svg id="a" xmlns="http://www.w3.org/2000/svg" viewBox="0 0 140 140"><g id="b"><path d="m71.59,39.71c-22.9-6.03-46.35,7.65-52.37,30.55-6.03,22.9,7.65,46.35,30.55,52.37,22.9,6.03,46.35-7.65,52.37-30.55,6.03-22.9-7.65-46.35-30.55-52.37Zm-16.65,63.27c-12.04-3.17-19.23-15.5-16.07-27.54s15.5-19.23,27.54-16.07c12.04,3.17,19.23,15.5,16.07,27.54-3.17,12.04-15.5,19.23-27.54,16.07Z" style="fill:#7f7f7f;"/><path d="m122.03,16.5l-29.5,112.07c-.72,2.75-3.53,4.39-6.28,3.66l-9.36-2.46c-2.75-.72-4.39-3.53-3.66-6.28L102.74,11.43c.72-2.75,3.53-4.39,6.28-3.66l9.36,2.46c2.75.72,4.39,3.53,3.66,6.28Z" style="fill:#7f7f7f;"/></g></svg>